<svg version="1" xmlns="http://www.w3.org/2000/svg" width="1333.333" height="1333.333" viewBox="0 0 1000.000000 1000.000000"><path d="M224.7 113.2c-2.9.8-4.2 1.9-5.7 4.8-2.6 5.1-202 760.3-202 765 0 4.9 3.7 8.7 9.3 9.5 2.3.3 172.5.4 378.2.3 355.1-.3 374.2-.4 376.8-2.1 1.5-.9 3.3-3 4.1-4.6C787.7 881.7 986 126.2 986 122c0-4.5-3.4-8.4-8.1-9.4-5.5-1.1-749-.5-753.2.6zm222.4 128.7c37.4 7.3 70 24.1 97.1 50 26.8 25.6 44.4 55.1 53.7 90.2 4.8 17.8 6.4 30.2 6.4 49.9-.1 19.6-1.6 32-6.3 49.9-6.4 24.4-19.8 51.4-34.8 69.9l-3.4 4.3 2.8 3c2.8 2.9 2.9 2.9 14.3 2.9h11.6l74.2 74.2c40.9 40.9 74.3 74.7 74.3 75.2 0 1.2-42.8 44.4-45.4 45.8-1.6.9-11.2-8.3-76.2-73.3L541 609.5v-11.6c0-11.4 0-11.5-2.9-14.3l-3-2.8-4.3 3.4c-18.5 15-45.5 28.4-69.9 34.8-17.9 4.7-30.3 6.2-49.9 6.3-19.7 0-32.1-1.6-49.9-6.4-35.1-9.3-64.6-26.9-90.2-53.7-26.1-27.3-42.8-60-50-97.7-4.2-21.8-4-51.3.5-73.5C237 317.3 296.2 258 373 242.4c22.1-4.5 52.3-4.7 74.1-.5z"/><path d="M387.8 304.6c-43.1 7.8-80 37.6-96.4 77.9-6.5 16-8.6 26-9.1 45-.6 19.9.8 30 6.3 46.4 14.8 44.5 53.1 77.4 99.6 85.7 12.1 2.2 33.4 2.2 45.4.1 53.5-9.5 95.6-51.6 105.1-105.1 2.1-12 2.1-33.3-.1-45.4-8.3-46.5-41.3-84.8-85.7-99.6-5.7-1.9-14.4-4.2-19.3-5.1-11-1.9-35.1-1.9-45.8.1z"/></svg>